<?xml version="1.0" encoding="UTF-8" standalone="no"?>
<svg width="146px" height="141px" viewBox="0 0 146 141" version="1.1" xmlns="http://www.w3.org/2000/svg" xmlns:xlink="http://www.w3.org/1999/xlink">
    <!-- Generator: Sketch 3.7.2 (28276) - http://www.bohemiancoding.com/sketch -->
    <title>Culture</title>
    <desc>Created with Sketch.</desc>
    <defs></defs>
    <g id="Page-1" stroke="none" stroke-width="1" fill="none" fill-rule="evenodd">
        <g id="Culture">
            <path d="M77.2181373,141.280462 C93.7460867,141.280462 129.32985,122.085898 142.052927,92.5170345 C151.95734,69.4988436 143.560539,38.1075559 130.315873,18.0901992 C103.364114,-22.6434076 94.2352941,62.5574166 79.8263684,61.3382282 C69.8559859,60.4946001 80.7899127,33.2418593 68.1529525,9.0382867 C59.3113407,-7.8960542 26.6979726,-0.479240012 10.7718015,26.6392292 C-27.9170056,92.5170362 47.8238328,141.280462 77.2181373,141.280462 Z" id="Oval-1" stroke="#313131" stroke-width="10"></path>
            <path d="M40.3897635,51.4864525 C47.5694652,51.4864525 57.3897635,50.218439 57.3897635,42.4864525 C57.3897635,34.754466 49.5694652,25.4864525 42.3897635,25.4864525 C35.2100617,25.4864525 25.3897635,29.754466 25.3897635,37.4864525 C25.3897635,45.218439 33.2100617,51.4864525 40.3897635,51.4864525 Z" id="Oval-3" fill="#313131"></path>
            <path d="M32.0460135,82.4239525 C38.1038868,82.4239525 46.3897635,81.3540661 46.3897635,74.8302025 C46.3897635,68.3063389 39.7913868,60.4864525 33.7335135,60.4864525 C27.6756401,60.4864525 19.3897635,64.0875889 19.3897635,70.6114525 C19.3897635,77.1353161 25.9881401,82.4239525 32.0460135,82.4239525 Z" id="Oval-3" fill="#313131" transform="translate(32.889763, 71.455203) scale(-1, -1) translate(-32.889763, -71.455203) "></path>
            <path d="M59.3897635,111.486453 C66.5694652,111.486453 76.3897635,110.218439 76.3897635,102.486453 C76.3897635,94.754466 68.5694652,85.4864525 61.3897635,85.4864525 C54.2100617,85.4864525 44.3897635,89.754466 44.3897635,97.4864525 C44.3897635,105.218439 52.2100617,111.486453 59.3897635,111.486453 Z" id="Oval-3" fill="#313131"></path>
            <path d="M115.671013,90.4864525 C124.421275,90.4864525 132.389763,78.4868928 132.389763,66.2941448 C132.389763,54.1013969 126.858775,44.4864525 118.108513,44.4864525 C109.358252,44.4864525 104.389763,51.2167815 104.389763,63.4095294 C104.389763,75.6022774 106.920752,90.4864525 115.671013,90.4864525 Z" id="Oval-3" fill="#313131"></path>
        </g>
    </g>
</svg>