<?xml version="1.0" encoding="UTF-8" standalone="no"?>
<svg width="121px" height="141px" viewBox="0 0 121 141" version="1.1" xmlns="http://www.w3.org/2000/svg" xmlns:xlink="http://www.w3.org/1999/xlink">
    <!-- Generator: Sketch 3.7.2 (28276) - http://www.bohemiancoding.com/sketch -->
    <title>Safety</title>
    <desc>Created with Sketch.</desc>
    <defs>
        <path d="M2.72932331,93.595699 C2.72932331,76.0823004 9.87892851,65.5353305 11.1988983,46.242944 C12.0438859,33.8927907 -7.10542736e-15,8.34441578 -7.10542736e-15,8.34441578 L16.3690853,-0.280461539 C16.3690853,-0.280461539 25.628988,9.37795494 38.1063557,9.43821985 C47.3279454,9.48275956 59.5902256,-0.0660247131 59.5902256,-0.0660247131 C59.5902256,-0.0660247131 73.4934587,9.50620984 83.5274983,9.48898972 C96.4832088,9.46675551 105.934364,-0.146228723 105.934364,-0.146228723 L121,8.34441578 C121,8.34441578 112.053146,28.802061 110.920681,48.1024039 C109.788217,67.4027469 118.270677,76.4558081 118.270677,94.3602845 C118.270677,103.564182 118.270677,115.386382 104.831554,124.198192 C91.3924304,133.010001 60.5,141 60.5,141 C60.5,141 28.0183819,130.23886 16.7385142,123.003767 C5.45864662,115.768675 2.72932331,102.845392 2.72932331,93.595699 Z" id="path-1"></path>
        <mask id="mask-2" maskContentUnits="userSpaceOnUse" maskUnits="objectBoundingBox" x="0" y="0" width="121" height="141.280462" fill="white">
            <use xlink:href="#path-1"></use>
        </mask>
    </defs>
    <g id="Page-1" stroke="none" stroke-width="1" fill="none" fill-rule="evenodd">
        <g id="Safety">
            <use id="Rectangle-1" stroke="#313131" mask="url(#mask-2)" stroke-width="20" xlink:href="#path-1"></use>
            <polygon id="Star-1" fill="#313131" points="61 86.25 42.1908719 95.3660013 45.7830957 76.0580007 30.5661915 62.3839987 51.595436 59.5669993 61 42 70.404564 59.5669993 91.4338085 62.3839987 76.2169043 76.0580007 79.8091281 95.3660013"></polygon>
        </g>
    </g>
</svg>