<?xml version="1.0" standalone="no"?>
<!DOCTYPE svg PUBLIC "-//W3C//DTD SVG 20010904//EN"
 "http://www.w3.org/TR/2001/REC-SVG-20010904/DTD/svg10.dtd">
<svg version="1.0" xmlns="http://www.w3.org/2000/svg"
 width="492.000000pt" height="492.000000pt" viewBox="0 0 492.000000 492.000000"
 preserveAspectRatio="xMidYMid meet">
<metadata>
Created by potrace 1.11, written by Peter Selinger 2001-2013
</metadata>
<g transform="translate(0.000000,492.000000) scale(0.100000,-0.100000)"
fill="#000000" stroke="none">
<path d="M2403 4790 c-18 -10 -39 -30 -48 -44 -9 -13 -90 -253 -181 -533 -91
-279 -208 -640 -260 -800 l-95 -293 -852 0 c-791 0 -854 -1 -886 -18 -43 -21
-70 -57 -77 -103 -13 -80 -25 -70 700 -596 369 -267 680 -494 692 -502 21 -16
20 -18 -102 -396 -419 -1290 -407 -1252 -400 -1289 4 -19 20 -49 37 -66 27
-27 37 -30 93 -30 l62 0 688 500 c378 275 689 500 691 500 2 0 313 -225 692
-500 l688 -500 60 0 c37 0 69 6 81 15 26 17 54 74 54 107 0 16 -479 1510 -525
1636 -3 8 -45 -17 -119 -70 -64 -46 -114 -88 -112 -93 58 -167 356 -1098 353
-1101 -3 -3 -238 165 -523 372 -286 208 -539 390 -564 405 -45 28 -62 32 -111
30 -17 -1 -212 -136 -584 -406 -307 -223 -560 -403 -563 -401 -2 3 91 297 207
654 116 357 211 659 211 672 0 65 -15 77 -594 498 l-561 407 706 5 c779 6 738
2 771 69 8 17 108 321 223 675 l209 645 77 -237 c43 -130 125 -384 184 -564
l106 -328 141 0 140 0 -6 23 c-20 80 -521 1605 -532 1623 -19 28 -72 54 -111
54 -15 0 -42 -9 -60 -20z"/>
<path d="M3370 3108 c0 -7 18 -67 39 -133 l40 -120 464 -5 464 -5 -364 -265
c-201 -146 -370 -268 -375 -271 -11 -7 71 -269 84 -269 13 0 1153 832 1175
858 32 38 32 127 1 167 -44 56 -26 55 -808 55 -569 0 -720 -3 -720 -12z"/>
</g>
</svg>
