<?xml version="1.0" encoding="UTF-8" standalone="no"?>
<svg width="165px" height="159px" viewBox="0 0 165 159" version="1.1" xmlns="http://www.w3.org/2000/svg" xmlns:xlink="http://www.w3.org/1999/xlink">
    <!-- Generator: Sketch 3.7.2 (28276) - http://www.bohemiancoding.com/sketch -->
    <title>Culture</title>
    <desc>Created with Sketch.</desc>
    <defs></defs>
    <g id="Page-1" stroke="none" stroke-width="1" fill="none" fill-rule="evenodd">
        <g id="Culture">
            <path d="M86.2181373,149.280462 C102.746087,149.280462 138.32985,130.085898 151.052927,100.517035 C160.95734,77.4988436 152.560539,46.1075559 139.315873,26.0901992 C112.364114,-14.6434076 103.235294,70.5574166 88.8263684,69.3382282 C78.8559859,68.4946001 89.7899127,41.2418593 77.1529525,17.0382867 C68.3113407,0.103945797 35.6979726,7.52075999 19.7718015,34.6392292 C-18.9170056,100.517036 56.8238328,149.280462 86.2181373,149.280462 Z" id="Oval-1" stroke="#313131" stroke-width="10"></path>
            <path d="M49.3897635,59.4864525 C56.5694652,59.4864525 66.3897635,58.218439 66.3897635,50.4864525 C66.3897635,42.754466 58.5694652,33.4864525 51.3897635,33.4864525 C44.2100617,33.4864525 34.3897635,37.754466 34.3897635,45.4864525 C34.3897635,53.218439 42.2100617,59.4864525 49.3897635,59.4864525 Z" id="Oval-3" fill="#313131"></path>
            <path d="M41.0460135,90.4239525 C47.1038868,90.4239525 55.3897635,89.3540661 55.3897635,82.8302025 C55.3897635,76.3063389 48.7913868,68.4864525 42.7335135,68.4864525 C36.6756401,68.4864525 28.3897635,72.0875889 28.3897635,78.6114525 C28.3897635,85.1353161 34.9881401,90.4239525 41.0460135,90.4239525 Z" id="Oval-3" fill="#313131" transform="translate(41.889763, 79.455203) scale(-1, -1) translate(-41.889763, -79.455203) "></path>
            <path d="M68.3897635,119.486453 C75.5694652,119.486453 85.3897635,118.218439 85.3897635,110.486453 C85.3897635,102.754466 77.5694652,93.4864525 70.3897635,93.4864525 C63.2100617,93.4864525 53.3897635,97.754466 53.3897635,105.486453 C53.3897635,113.218439 61.2100617,119.486453 68.3897635,119.486453 Z" id="Oval-3" fill="#313131"></path>
            <path d="M124.671013,98.4864525 C133.421275,98.4864525 141.389763,86.4868928 141.389763,74.2941448 C141.389763,62.1013969 135.858775,52.4864525 127.108513,52.4864525 C118.358252,52.4864525 113.389763,59.2167815 113.389763,71.4095294 C113.389763,83.6022774 115.920752,98.4864525 124.671013,98.4864525 Z" id="Oval-3" fill="#313131"></path>
        </g>
    </g>
</svg>