<?xml version="1.0" encoding="UTF-8" standalone="no"?>
<svg width="126px" height="161px" viewBox="0 0 126 161" version="1.1" xmlns="http://www.w3.org/2000/svg" xmlns:xlink="http://www.w3.org/1999/xlink">
    <!-- Generator: Sketch 3.7.2 (28276) - http://www.bohemiancoding.com/sketch -->
    <title>Safety</title>
    <desc>Created with Sketch.</desc>
    <defs>
        <path d="M4.72932331,103.595699 C4.72932331,86.0823004 11.8789285,75.5353305 13.1988983,56.242944 C14.0438859,43.8927907 2,18.3444158 2,18.3444158 L18.3690853,9.71953846 C18.3690853,9.71953846 27.628988,19.3779549 40.1063557,19.4382199 C49.3279454,19.4827596 61.5902256,9.93397529 61.5902256,9.93397529 C61.5902256,9.93397529 75.4934587,19.5062098 85.5274983,19.4889897 C98.4832088,19.4667555 107.934364,9.85377128 107.934364,9.85377128 L123,18.3444158 C123,18.3444158 114.053146,38.802061 112.920681,58.1024039 C111.788217,77.4027469 120.270677,86.4558081 120.270677,104.360285 C120.270677,113.564182 120.270677,125.386382 106.831554,134.198192 C93.3924304,143.010001 62.5,151 62.5,151 C62.5,151 30.0183819,140.23886 18.7385142,133.003767 C7.45864662,125.768675 4.72932331,112.845392 4.72932331,103.595699 Z" id="path-1"></path>
        <mask id="mask-2" maskContentUnits="userSpaceOnUse" maskUnits="objectBoundingBox" x="0" y="0" width="121" height="141.280462" fill="white">
            <use xlink:href="#path-1"></use>
        </mask>
    </defs>
    <g id="Page-1" stroke="none" stroke-width="1" fill="none" fill-rule="evenodd">
        <g id="Safety">
            <use id="Rectangle-1" stroke="#313131" mask="url(#mask-2)" stroke-width="20" xlink:href="#path-1"></use>
            <polygon id="Star-1" fill="#313131" points="63 96.25 44.1908719 105.366001 47.7830957 86.0580007 32.5661915 72.3839987 53.595436 69.5669993 63 52 72.404564 69.5669993 93.4338085 72.3839987 78.2169043 86.0580007 81.8091281 105.366001"></polygon>
        </g>
    </g>
</svg>