<?xml version="1.0" encoding="UTF-8" standalone="no"?>
<svg width="432px" height="434px" viewBox="0 0 432 434" version="1.1" xmlns="http://www.w3.org/2000/svg" xmlns:xlink="http://www.w3.org/1999/xlink">
    <!-- Generator: Sketch 3.7.2 (28276) - http://www.bohemiancoding.com/sketch -->
    <title>Group 4</title>
    <desc>Created with Sketch.</desc>
    <defs></defs>
    <g id="Page-1" stroke="none" stroke-width="1" fill="none" fill-rule="evenodd">
        <g id="Artboard-1" transform="translate(-1477.000000, -1267.000000)">
            <g id="Group-4" transform="translate(1476.000000, 1221.000000)">
                <g id="Group-2" transform="translate(0.100410, 0.000000)">
                    <path d="M1.04788896,478.990711 C2.07300799,479.305798 3.80250287,479.561225 4.90716593,479.561225 L423.728738,479.56123 C424.835039,479.56123 426.619817,479.480351 427.590687,478.986946 L427.801387,478.407633 C427.256251,477.479258 426.163227,476.113712 425.351939,475.349967 L226.954077,288.578367 C226.14642,287.818039 224.776675,286.658296 223.779181,286.209457 L221.109727,286.161074 C220.144205,286.673646 218.688637,287.676362 217.856927,288.402186 L3.43429908,475.526143 C2.6033489,476.251303 1.30394838,477.486754 0.875319303,478.467816 L1.04788896,478.990711 Z" id="Rectangle-18-Copy" fill="#E96737"></path>
                    <path d="M110.628037,368.580394 C111.639574,368.916473 113.358059,369.188919 114.462722,369.188919 L533.284294,369.188923 C534.390595,369.188923 536.175373,369.097912 537.119424,368.57704 L537.346461,367.716924 C536.807114,366.768279 535.756111,365.349057 534.990453,364.537969 L336.426674,154.192519 C335.664834,153.385475 334.376936,152.150746 333.396732,151.637028 L330.615111,151.575997 C329.677299,152.1441 328.273885,153.236237 327.485568,154.010377 L112.91677,364.720106 C112.126184,365.496474 110.898701,366.799053 110.445368,367.792314 L110.628037,368.580394 Z" id="Rectangle-18-Copy" fill="#E96737" transform="translate(323.906900, 260.287311) scale(1, -1) rotate(-90.000000) translate(-323.906900, -260.287311) "></path>
                    <path d="M104.793785,421.316444 C86.1056128,418.294917 49.4510332,404.570423 32.7119528,377.656872 C30.7533714,374.507811 20.6026634,346.815044 43.1461891,293.033641 C65.6897147,239.252238 75.4403412,230.750637 108.626615,196.549572 C121.001642,183.796134 123.869153,189.079183 134.686822,190.828198 C179.869801,198.133438 225.756692,261.84586 216.567377,321.072594 C207.378062,380.299327 149.976763,428.621684 104.793785,421.316444" id="Oval-9-Copy" stroke="#313131" stroke-width="4" fill="#EDEFF3"></path>
                    <g id="face" transform="translate(232.105926, 124.508479) scale(-1, 1) rotate(-20.000000) translate(-232.105926, -124.508479) translate(127.605926, 30.508479)">
                        <path d="M207.449758,96.436134 C207.449758,85.7154446 198.579201,66.1201334 180.517167,66.1201334 C162.455133,66.1201334 152.565373,71.1972494 149.371188,76.2239056 C146.177003,81.2505618 207.449758,107.156824 207.449758,96.436134 Z" id="Oval-5-Copy" fill="#313131" transform="translate(178.350131, 82.565465) rotate(-307.000000) translate(-178.350131, -82.565465) "></path>
                        <path d="M60.3916735,53.4982918 C78.4537075,53.4982918 93.0958792,44.8074559 93.0958792,34.0867664 C93.0958792,23.3660769 80.6591519,8.49170835 62.5971179,8.49170835 C44.5350838,8.49170835 27.6874678,23.3660769 27.6874678,34.0867664 C27.6874678,44.8074559 42.3296394,53.4982918 60.3916735,53.4982918 Z" id="Oval-5-Copy-3" fill="#313131" transform="translate(60.391673, 30.995000) rotate(-16.000000) translate(-60.391673, -30.995000) "></path>
                        <path d="M12.7043181,135.880678 C23.9171887,151.409899 61.490125,187.321221 97.7352529,187.321221 C111.568605,187.321221 150.280699,176.659943 159.406041,169.850848 C174.532585,158.563808 180.52178,115.051694 179.96297,111.616271 C177.369315,95.6711352 175.500387,71.7879443 164.07807,56.2934238 C147.114572,33.2822194 116.037021,25.2349831 86.5223824,25.2349831 C64.7578467,25.2349831 47.2673346,38.9584411 33.2612474,48.5288136 C12.7291609,62.5584078 0.557041753,77.0842898 0.557041753,103.851661 C0.557041753,110.875603 1.49144763,120.351458 12.7043181,135.880678 Z" id="Oval-4-Copy" stroke="#313131" stroke-width="4" fill="#EDEFF3"></path>
                        <path d="M125.338684,140.013933 C138.836879,138.072781 127.301956,124.392158 126.62209,122.54356 C125.301956,118.954036 124.281773,114.254659 124.404574,110.093989 C124.563618,104.705338 122.032902,100.220306 117.976032,100.220306 C107.810331,100.220306 99.569402,111.518393 99.569402,125.455289 C99.569402,139.392186 115.257609,141.463676 125.338684,140.013933 Z" id="Oval-1-Copy" fill="#313131"></path>
                        <path d="M74.2463758,103.193669 C87.744571,101.252516 73.9446682,86.3768 73.2648023,84.5282028 C71.9446686,80.9386785 73.1894655,77.4343946 73.3122661,73.273724 C73.4713102,67.8850733 70.9405937,63.4000414 66.8837239,63.4000414 C56.718023,63.4000414 48.4770941,74.6981281 48.4770941,88.6350244 C48.4770941,102.571921 64.1653012,104.643411 74.2463758,103.193669 Z" id="Oval-1-Copy-2" fill="#313131" transform="translate(64.310817, 83.493406) scale(-1, 1) rotate(-52.000000) translate(-64.310817, -83.493406) "></path>
                        <path d="M63.6179263,111.720054 C72.0275792,111.720054 84.4077316,136.9295 80.4372321,144.719648 C76.4667326,152.509795 59.9218134,146.519902 55.610386,138.060852 C51.2989587,129.601802 55.2082734,111.720054 63.6179263,111.720054 Z" id="Triangle-1-Copy" fill="#313131" transform="translate(67.521123, 130.028442) rotate(-23.000000) translate(-67.521123, -130.028442) "></path>
                        <path d="M55.7747341,157.939646 C68.5443912,157.939646 77.7277646,156.437748 78.0704751,155.027918 C78.4131857,153.618087 68.5443912,153.086765 55.7747341,153.086765 C43.005077,153.086765 32.2987476,147.265678 31.8274564,149.204459 C31.3561652,151.143241 43.005077,157.939646 55.7747341,157.939646 Z" id="Oval-3-Copy" fill="#313131" transform="translate(54.946383, 153.374349) rotate(-327.000000) translate(-54.946383, -153.374349) "></path>
                    </g>
                    <path d="M339.744966,206.846942 C344.239146,223.462994 335.464755,235.759698 317.514631,247.654274 C292.268372,264.383604 275.431801,280.371277 252.561122,283.708989 C205.506605,290.576054 221.038559,307.790965 217.834222,297.539653 C213.977266,285.200483 201.807989,253.855971 184.699963,242.809415 C163.345116,229.020711 107.045158,194.605364 110.287428,193.200455 C114.984734,191.165064 133.329253,174.375494 156.119627,176.960465 C159.00409,177.287632 167.705673,189.784201 182.646016,198.831601 C197.58636,207.879001 211.496944,212.093448 216.314132,213.412356 C257.769688,224.762562 307.813756,191.949616 310.036455,193.455589 C311.354565,194.348666 337.791083,199.622971 339.744966,206.846942" id="Oval-5-Copy-2" fill="#313131"></path>
                    <path d="M179.088456,445.879934 C167.656521,454.933202 148.701575,450.354647 138.571191,446.385013 C131.173171,443.486067 113.071048,437.40386 110.514119,428.763839 C105.522913,411.898245 105.645846,382.438577 112.092949,354.299924 C118.540052,326.161271 140.094445,299.659256 140.094445,299.659256 C140.094445,299.659256 157.620515,285.8586 171.987809,286.57177 C192.528649,287.591385 205.14595,308.917755 207.653062,314.09384 C213.669876,326.515926 217.524101,350.487338 209.620849,378.443569 C203.271177,400.904312 192.301607,435.41607 179.088456,445.879934" id="Oval-8-Copy" fill="#313131"></path>
                </g>
            </g>
        </g>
    </g>
</svg>